<svg xmlns="http://www.w3.org/2000/svg" xml:space="preserve" id="Layer_1" width="520" height="81" x="0" y="0" version="1.1"><style>.st10{fill:#454545}.st11{fill:#879e2a}</style><linearGradient id="SVGID_1_" x1="49.472" x2="49.472" y1=".881" y2="69.666" gradientUnits="userSpaceOnUse"><stop offset="0" style="stop-color:#7fcdc4"/><stop offset=".247" style="stop-color:#88cda9"/><stop offset=".541" style="stop-color:#90cc8c"/><stop offset=".649" style="stop-color:#9ecf7e"/><stop offset=".877" style="stop-color:#b7d65e"/><stop offset="1" style="stop-color:#c0d850"/></linearGradient><path d="M62.8 50.9c0 7.4-6 13.3-13.3 13.3-7.4 0-13.3-6-13.3-13.3 0-4.3 2-8.1 5.2-10.5l8.2 6.6-2 1.6c-.7.6-1.2 1.5-1.2 2.5 0 1.8 1.4 3.2 3.2 3.2s3.2-1.4 3.2-3.2c0-1-.4-1.9-1.1-2.4-.1-.1-.2-.1-.2-.2l-2-1.5 8.1-6.6.1-.1c3.1 2.5 5.1 6.3 5.1 10.6" style="fill:url(#SVGID_1_)"/><linearGradient id="SVGID_2_" x1="68.936" x2="68.936" y1=".881" y2="69.672" gradientUnits="userSpaceOnUse"><stop offset="0" style="stop-color:#7fcdc4"/><stop offset=".247" style="stop-color:#88cda9"/><stop offset=".541" style="stop-color:#90cc8c"/><stop offset=".649" style="stop-color:#9ecf7e"/><stop offset=".877" style="stop-color:#b7d65e"/><stop offset="1" style="stop-color:#c0d850"/></linearGradient><path d="M68.9 0c-7.5 0-13.6 6.1-13.6 13.6 0 3.2 1.1 6.2 3 8.5l1.9 2.9 8-6.4-1.8-2.8-.4-.7c-.2-.4-.3-.8-.3-1.3 0-1.7 1.4-3.1 3.1-3.1s3.1 1.3 3.1 3.1c0 .9-.4 1.8-1.4 2.8l-2.3 2 5.5 8.6 2.4-1.9c3.8-2.4 6.4-6.7 6.4-11.6.1-7.6-6-13.7-13.6-13.7" style="fill:url(#SVGID_2_)"/><linearGradient id="SVGID_3_" x1="57.615" x2="57.615" y1=".881" y2="69.666" gradientUnits="userSpaceOnUse"><stop offset="0" style="stop-color:#7fcdc4"/><stop offset=".247" style="stop-color:#88cda9"/><stop offset=".541" style="stop-color:#90cc8c"/><stop offset=".649" style="stop-color:#9ecf7e"/><stop offset=".877" style="stop-color:#b7d65e"/><stop offset="1" style="stop-color:#c0d850"/></linearGradient><path d="m65.8 33.7-8.1 6.6-.1.1-.9-.7-7.2-5.9L60.2 25z" style="fill:url(#SVGID_3_)"/><linearGradient id="SVGID_4_" x1="29.984" x2="29.984" y1=".881" y2="69.671" gradientUnits="userSpaceOnUse"><stop offset="0" style="stop-color:#7fcdc4"/><stop offset=".247" style="stop-color:#88cda9"/><stop offset=".541" style="stop-color:#90cc8c"/><stop offset=".649" style="stop-color:#9ecf7e"/><stop offset=".877" style="stop-color:#b7d65e"/><stop offset="1" style="stop-color:#c0d850"/></linearGradient><path d="M30 0c7.5 0 13.6 6.1 13.6 13.6 0 3.2-1.1 6.2-3 8.5L38.7 25l-8-6.4 1.8-2.8.4-.7c.2-.4.3-.8.3-1.3 0-1.7-1.4-3.1-3.1-3.1S27 12 27 13.8c0 .9.4 1.8 1.4 2.8l2.3 2-5.5 8.6-2.4-1.9c-3.8-2.4-6.4-6.7-6.4-11.6C16.4 6.1 22.5 0 30 0" style="fill:url(#SVGID_4_)"/><linearGradient id="SVGID_5_" x1="45.417" x2="45.417" y1=".867" y2="69.681" gradientUnits="userSpaceOnUse"><stop offset="0" style="stop-color:#7fcdc4"/><stop offset=".247" style="stop-color:#88cda9"/><stop offset=".541" style="stop-color:#90cc8c"/><stop offset=".649" style="stop-color:#9ecf7e"/><stop offset=".877" style="stop-color:#b7d65e"/><stop offset="1" style="stop-color:#c0d850"/></linearGradient><path d="M57.7 40.4 49.5 47l-8.1-6.6-.1-.1-8.2-6.6 5.6-8.7 10.8 8.8z" style="fill:url(#SVGID_5_)"/><linearGradient id="SVGID_6_" x1="52.209" x2="77.176" y1="36.441" y2="17.2" gradientUnits="userSpaceOnUse"><stop offset="0" style="stop-color:#68c075"/><stop offset=".197" style="stop-color:#86cdb3;stop-opacity:0"/><stop offset=".238" style="stop-color:#86cdb3;stop-opacity:0"/><stop offset=".265" style="stop-color:#7fcaa4;stop-opacity:.1364"/><stop offset=".306" style="stop-color:#75c592;stop-opacity:.3431"/><stop offset=".347" style="stop-color:#6ec286;stop-opacity:.5543"/><stop offset=".39" style="stop-color:#6ac17e;stop-opacity:.7706"/><stop offset=".435" style="stop-color:#68c07c"/><stop offset=".523" style="stop-color:#86cdb3;stop-opacity:0"/><stop offset=".692" style="stop-color:#63c29e;stop-opacity:.7228"/><stop offset=".736" style="stop-color:#5dc19a"/><stop offset=".878" style="stop-color:#78c8a9;stop-opacity:.3465"/><stop offset=".953" style="stop-color:#86cdb3;stop-opacity:0"/></linearGradient><path d="M72.7 13.6v.2c0 1.1-.5 2.2-1.6 3.4l-3 2.6-6.8 5.4-11.1 9.1 6.9 5.6 8.3-6.8 8-6.5 2.5-2c3.7-2.3 6-6.5 6-11z" style="fill:url(#SVGID_6_)"/><linearGradient id="SVGID_7_" x1="474.054" x2="500.707" y1="35.211" y2="18.381" gradientTransform="matrix(-1 0 0 1 521.593 0)" gradientUnits="userSpaceOnUse"><stop offset=".078" style="stop-color:#82cbab;stop-opacity:0"/><stop offset=".192" style="stop-color:#75c39d;stop-opacity:.3619"/><stop offset=".394" style="stop-color:#5fb98a"/><stop offset=".449" style="stop-color:#6cbf95;stop-opacity:.7321"/><stop offset=".542" style="stop-color:#7cc8a5;stop-opacity:.2861"/><stop offset=".601" style="stop-color:#82cbab;stop-opacity:0"/><stop offset=".679" style="stop-color:#62bb9c"/><stop offset=".78" style="stop-color:#69be9f;stop-opacity:.6391"/><stop offset=".922" style="stop-color:#7cc8a8;stop-opacity:.1304"/><stop offset=".959" style="stop-color:#82cbab;stop-opacity:0"/></linearGradient><path d="M26.3 13.6v.2c0 1.1.5 2.2 1.6 3.4l3 2.6 6.8 5.4 11.1 9.1-6.8 5.6-8.3-6.8-8-6.5-2.5-2c-3.7-2.3-6-6.5-6-11z" style="fill:url(#SVGID_7_)"/><linearGradient id="SVGID_8_" x1="48.643" x2="41.804" y1="46.46" y2="56.748" gradientUnits="userSpaceOnUse"><stop offset="0" style="stop-color:#73c160"/><stop offset=".171" style="stop-color:#7ac360;stop-opacity:.7409"/><stop offset=".391" style="stop-color:#8bc75e;stop-opacity:.4066"/><stop offset=".637" style="stop-color:#a5d05a;stop-opacity:3.261226e-02"/><stop offset=".658" style="stop-color:#a8d05a;stop-opacity:0"/></linearGradient><path d="M48.7 63.4c-6.6-.4-11.8-5.9-11.8-12.5 0-3.7 1.6-7.1 4.4-9.5l.6-.5 7 5.6-2 1.5c-.9.8-1.5 1.9-1.5 3.1 0 1.9 1.4 3.5 3.2 3.9v8.4z" style="fill:url(#SVGID_8_)"/><linearGradient id="SVGID_9_" x1="79.56" x2="79.56" y1=".877" y2="69.666" gradientUnits="userSpaceOnUse"><stop offset="0" style="stop-color:#7fcdc4"/><stop offset=".247" style="stop-color:#88cda9"/><stop offset=".541" style="stop-color:#90cc8c"/><stop offset=".649" style="stop-color:#9ecf7e"/><stop offset=".877" style="stop-color:#b7d65e"/><stop offset="1" style="stop-color:#c0d850"/></linearGradient><path d="m97.6 69.5-3.7 2.4c-1.3.9-3.1.5-4-.9L65.8 33.7 60.2 25l8-6.4 5.1 8 .4.6 24.7 38.3c.9 1.3.5 3.1-.8 4" style="fill:url(#SVGID_9_)"/><linearGradient id="SVGID_10_" x1="19.358" x2="19.358" y1=".873" y2="69.666" gradientUnits="userSpaceOnUse"><stop offset="0" style="stop-color:#7fcdc4"/><stop offset=".247" style="stop-color:#88cda9"/><stop offset=".541" style="stop-color:#90cc8c"/><stop offset=".649" style="stop-color:#9ecf7e"/><stop offset=".877" style="stop-color:#b7d65e"/><stop offset="1" style="stop-color:#c0d850"/></linearGradient><path d="M1.3 69.5 5 71.9c1.3.9 3.1.5 4-.9l24.1-37.3 5.6-8.7-8-6.4-5.1 8-.4.6L.5 65.5c-.9 1.3-.5 3.1.8 4" style="fill:url(#SVGID_10_)"/><path d="M146.9 50.5V35.6c0-4.4-1.9-6.5-4.8-6.5-3 0-5.1 2.4-5.1 6.3v15.2h-5.6V34.9c0-4.3-2-5.9-4.9-5.9-2.7 0-4.9 1.7-4.9 6.3v15.2H116V24.7h5.4v2.9c1.7-2.6 4.1-3.4 6.5-3.4 3 0 5.4 1.3 7.2 4.3 1.4-2.5 4.1-4.3 7.5-4.3 5.4 0 9.8 3.2 9.8 11.1v15.2zM171 24.3c7.2 0 11.2 3.5 12.1 4.2v22h-5.5v-4.4c-1.4 2.6-4.1 4.8-7.9 4.8-7.8 0-11.9-5.7-11.9-13.2.1-7.5 4.8-13.4 13.2-13.4m-.7 21.6c4.4 0 7.3-4 7.3-10.4V31c-.6-.5-2.6-1.7-6.4-1.7-5.1 0-7.7 4-7.7 8.6 0 4.5 2 8 6.8 8M207.8 50.5V37.1c0-5.5-1.5-8.1-5.6-8.1s-6.7 3.7-6.7 8.4v13.1h-5.6V24.7h5.6v3.8c1.5-2.6 4.4-4.1 7.7-4.1 7.4 0 10.3 4.6 10.3 12.7v13.5h-5.7zM231.9 50.8H229c-6.4 0-8.6-3-8.6-10V29.3h-4.5l1.2-4.6h3.3v-5.2l5.6-1.2v6.4h6.4v4.6H226v11.6c0 4.8 1.2 5.6 6.9 5.1zM240.6 19.9c-1.9 0-3.3-1.2-3.3-3.2 0-1.9 1.5-3 3.3-3 1.9 0 3.4 1.1 3.4 3.1s-1.4 3.1-3.4 3.1m-2.7 30.6V24.7h5.6v25.8zM249.4 37.6c0-8.4 5.7-13.4 13.6-13.4 4.9 0 8.3 2.4 8.8 2.7l-1.2 4.9s-3.3-2.7-7.6-2.7c-4.6 0-8.2 3-8.2 8.4s3.5 8.6 8.1 8.6c4 0 6.8-2.3 7.2-2.7l2.5 4.5c-3.4 2.2-6.5 3-9.7 3-7.7 0-13.5-5-13.5-13.3M288.6 50.9c-7.4 0-13.3-4.8-13.3-13.3s5.9-13.3 13.3-13.3c7.5 0 13.3 4.9 13.3 13.4.1 8.4-5.8 13.2-13.3 13.2m0-21.7c-4.2 0-7.7 3.1-7.7 8.5s3.5 8.4 7.7 8.4c4.4 0 7.8-3 7.8-8.3 0-5.5-3.4-8.6-7.8-8.6M319.9 29.3c-5.9 0-6.7 4.6-6.7 10v11.2h-5.6V24.7h5.6v3.9c.9-2.7 3.6-4.3 6.5-4.3.6 0 .9 0 1.5.1-.4 1.8-.5 3.2-.9 5h-.4zM328.3 38.8c0 4.9 3.6 7.4 8 7.4 3.6 0 5.6-1.5 6.7-2.5l2.8 4.2c-3.3 2.3-6 3.1-9.5 3.1-8.5 0-13.6-5.2-13.6-13.3 0-8 5.3-13.3 12.4-13.3 6.5 0 11.6 4.4 11.6 11.9 0 1.2-.1 2.6-.1 2.6h-18.3zm.3-4.4h13c-.4-3.7-3.1-5.6-6.4-5.6-3 0-5.6 1.9-6.6 5.6" class="st10"/><path d="M367.1 31.5c-2.7-1.9-5-2.5-7-2.5-1.7 0-3.5.7-3.5 2.5 0 4.8 12.9 2.5 12.9 11.5 0 4.8-3.8 7.8-9.7 7.8-2.7 0-5.9-.5-9.7-3 1-1.4 2.8-4 2.8-4 2 1.4 4.6 2.2 6.7 2.2 2.8 0 4.1-1.2 4.1-3 0-5.3-12.6-2.5-12.6-11.7 0-4.6 3.7-7.3 9-7.3 3.3 0 6.1 1.2 7.9 2.5zM378.9 38.8c0 4.9 3.6 7.4 8 7.4 3.6 0 5.6-1.5 6.7-2.5l2.8 4.2c-3.3 2.3-6 3.1-9.5 3.1-8.5 0-13.6-5.2-13.6-13.3 0-8 5.3-13.3 12.4-13.3 6.5 0 11.6 4.4 11.6 11.9 0 1.2-.1 2.6-.1 2.6h-18.3zm.3-4.4h13c-.4-3.7-3.1-5.6-6.4-5.6-3 0-5.6 1.9-6.6 5.6M414.6 24.3c7.2 0 11.2 3.5 12.1 4.2v22h-5.5v-4.4c-1.4 2.6-4.1 4.8-7.9 4.8-7.8 0-11.9-5.7-11.9-13.2s4.7-13.4 13.2-13.4m-.7 21.6c4.4 0 7.3-4 7.3-10.4V31c-.6-.5-2.6-1.7-6.4-1.7-5.1 0-7.7 4-7.7 8.6 0 4.5 2 8 6.8 8M445.7 29.3c-5.9 0-6.7 4.6-6.7 10v11.2h-5.6V24.7h5.6v3.9c.9-2.7 3.6-4.3 6.5-4.3.6 0 .9 0 1.5.1-.4 1.8-.5 3.2-.9 5h-.4zM448.5 37.6c0-8.4 5.7-13.4 13.6-13.4 4.9 0 8.3 2.4 8.8 2.7l-1.2 4.9s-3.3-2.7-7.6-2.7c-4.6 0-8.2 3-8.2 8.4s3.5 8.6 8.1 8.6c4 0 6.8-2.3 7.2-2.7l2.5 4.5c-3.4 2.2-6.5 3-9.7 3-7.7 0-13.5-5-13.5-13.3M494.3 50.5V37c0-5.5-1.5-8-5.6-8s-6.7 3.7-6.7 8.4v13.1h-5.6V12.8l5.6-1.1v16.8c1.5-2.6 4.7-4.1 7.9-4.1 7.2 0 10.1 4.5 10.1 12.6v13.6h-5.7z" class="st11"/></svg>